HIERARCHY
ROOT hip
{
  OFFSET 0 0 0
  CHANNELS 6 Xposition Yposition Zposition Zrotation Yrotation Xrotation
  JOINT abdomen
  {
    OFFSET 0 20.6881 -0.73152
    CHANNELS 3 Zrotation Xrotation Yrotation
    JOINT chest
    {
      OFFSET 0 11.7043 -0.48768
      CHANNELS 3 Zrotation Xrotation Yrotation
      JOINT neck
      {
        OFFSET 0 22.1894 -2.19456
        CHANNELS 3 Zrotation Xrotation Yrotation
        JOINT head
        {
          OFFSET -0.24384 7.07133 1.2192
          CHANNELS 3 Zrotation Xrotation Yrotation
          JOINT leftEye
          {
            OFFSET 4.14528 8.04674 8.04672
            CHANNELS 3 Zrotation Xrotation Yrotation
            End Site
            {
              OFFSET 1 0 0
            }
          }
          JOINT rightEye
          {
            OFFSET -3.6576 8.04674 8.04672
            CHANNELS 3 Zrotation Xrotation Yrotation
            End Site
            {
              OFFSET 1 0 0
            }
          }
        }
      }
      JOINT rCollar
      {
        OFFSET -2.68224 19.2634 -4.8768
        CHANNELS 3 Zrotation Xrotation Yrotation
        JOINT rShldr
        {
          OFFSET -8.77824 -1.95073 1.46304
          CHANNELS 3 Zrotation Xrotation Yrotation
          JOINT rForeArm
          {
            OFFSET -28.1742 -1.7115 0.48768
            CHANNELS 3 Zrotation Xrotation Yrotation
            JOINT rHand
            {
              OFFSET -22.5879 0.773209 7.07136
              CHANNELS 3 Zrotation Xrotation Yrotation
              JOINT rThumb1
              {
                OFFSET -1.2192 -0.487915 3.41376
                CHANNELS 3 Zrotation Xrotation Yrotation
                JOINT rThumb2
                {
                  OFFSET -3.37035 -0.52449 3.41376
                  CHANNELS 3 Zrotation Xrotation Yrotation
                  End Site
                  {
                    OFFSET -1.78271 -1.18214 1.43049
                  }
                }
              }
              JOINT rIndex1
              {
                OFFSET -7.75947 0.938293 5.60832
                CHANNELS 3 Zrotation Xrotation Yrotation
                JOINT rIndex2
                {
                  OFFSET -2.54057 -0.884171 1.56538
                  CHANNELS 3 Zrotation Xrotation Yrotation
                  End Site
                  {
                    OFFSET -1.62519 -0.234802 1.16502
                  }
                }
              }
              JOINT rMid1
              {
                OFFSET -8.24714 1.18213 3.41376
                CHANNELS 3 Zrotation Xrotation Yrotation
                JOINT rMid2
                {
                  OFFSET -3.10165 -0.590103 1.0647
                  CHANNELS 3 Zrotation Xrotation Yrotation
                  End Site
                  {
                    OFFSET -2.48547 -0.328903 0.83742
                  }
                }
              }
              JOINT rRing1
              {
                OFFSET -8.82822 0.546677 1.51678
                CHANNELS 3 Zrotation Xrotation Yrotation
                JOINT rRing2
                {
                  OFFSET -2.60934 -0.819778 -0.0198488
                  CHANNELS 3 Zrotation Xrotation Yrotation
                  End Site
                  {
                    OFFSET -2.33842 -0.294052 0.168128
                  }
                }
              }
              JOINT rPinky1
              {
                OFFSET -8.27202 -0.0477905 -0.4584
                CHANNELS 3 Zrotation Xrotation Yrotation
                JOINT rPinky2
                {
                  OFFSET -1.82734 -0.647385 -0.700984
                  CHANNELS 3 Zrotation Xrotation Yrotation
                  End Site
                  {
                    OFFSET -1.69225 -0.51767 -0.607171
                  }
                }
              }
            }
          }
        }
      }
      JOINT lCollar
      {
        OFFSET 2.68224 19.2634 -4.8768
        CHANNELS 3 Zrotation Xrotation Yrotation
        JOINT lShldr
        {
          OFFSET 8.77824 -1.95073 1.46304
          CHANNELS 3 Zrotation Xrotation Yrotation
          JOINT lForeArm
          {
            OFFSET 28.1742 -1.7115 0.48768
            CHANNELS 3 Zrotation Xrotation Yrotation
            JOINT lHand
            {
              OFFSET 22.5879 0.773209 7.07136
              CHANNELS 3 Zrotation Xrotation Yrotation
              JOINT lThumb1
              {
                OFFSET 1.2192 -0.487915 3.41376
                CHANNELS 3 Zrotation Xrotation Yrotation
                JOINT lThumb2
                {
                  OFFSET 3.37035 -0.52449 3.41376
                  CHANNELS 3 Zrotation Xrotation Yrotation
                  End Site
                  {
                    OFFSET 1.78271 -1.18214 1.43049
                  }
                }
              }
              JOINT lIndex1
              {
                OFFSET 7.75947 0.938293 5.60832
                CHANNELS 3 Zrotation Xrotation Yrotation
                JOINT lIndex2
                {
                  OFFSET 2.54057 -0.884171 1.56538
                  CHANNELS 3 Zrotation Xrotation Yrotation
                  End Site
                  {
                    OFFSET 1.62519 -0.234802 1.16502
                  }
                }
              }
              JOINT lMid1
              {
                OFFSET 8.24714 1.18213 3.41376
                CHANNELS 3 Zrotation Xrotation Yrotation
                JOINT lMid2
                {
                  OFFSET 3.10165 -0.590103 1.0647
                  CHANNELS 3 Zrotation Xrotation Yrotation
                  End Site
                  {
                    OFFSET 2.48547 -0.328903 0.83742
                  }
                }
              }
              JOINT lRing1
              {
                OFFSET 8.82822 0.546677 1.51678
                CHANNELS 3 Zrotation Xrotation Yrotation
                JOINT lRing2
                {
                  OFFSET 2.60934 -0.819778 -0.0198488
                  CHANNELS 3 Zrotation Xrotation Yrotation
                  End Site
                  {
                    OFFSET 2.33842 -0.294052 0.168128
                  }
                }
              }
              JOINT lPinky1
              {
                OFFSET 8.27202 -0.0477905 -0.4584
                CHANNELS 3 Zrotation Xrotation Yrotation
                JOINT lPinky2
                {
                  OFFSET 1.82734 -0.647385 -0.700984
                  CHANNELS 3 Zrotation Xrotation Yrotation
                  End Site
                  {
                    OFFSET 1.69225 -0.51767 -0.607171
                  }
                }
              }
            }
          }
        }
      }
    }
  }
  JOINT rButtock
  {
    OFFSET -8.77824 4.35084 1.2192
    CHANNELS 3 Zrotation Xrotation Yrotation
    JOINT rThigh
    {
      OFFSET 0 -1.70687 -2.19456
      CHANNELS 3 Zrotation Xrotation Yrotation
      JOINT rShin
      {
        OFFSET 0 -36.8199 0.73152
        CHANNELS 3 Zrotation Xrotation Yrotation
        JOINT rFoot
        {
          OFFSET 0.73152 -45.1104 -5.12064
          CHANNELS 3 Zrotation Xrotation Yrotation
          End Site
          {
            OFFSET -1.1221 -3.69964 12.103
          }
        }
      }
    }
  }
  JOINT lButtock
  {
    OFFSET 8.77824 4.35084 1.2192
    CHANNELS 3 Zrotation Xrotation Yrotation
    JOINT lThigh
    {
      OFFSET 0 -1.70687 -2.19456
      CHANNELS 3 Zrotation Xrotation Yrotation
      JOINT lShin
      {
        OFFSET 0 -36.8199 0.73152
        CHANNELS 3 Zrotation Xrotation Yrotation
        JOINT lFoot
        {
          OFFSET -0.73152 -45.1104 -5.12064
          CHANNELS 3 Zrotation Xrotation Yrotation
          End Site
          {
            OFFSET 1.1221 -3.69964 12.103
          }
        }
      }
    }
  }
}
MOTION
Frames: 4
Frame Time:	0.06666666
128.191 77.8965 -56.4751 181.294 -1.3764 -161.199 -7.75325 -28.1031 4.09307 3.17095 17.0621 0.984975 15.1418 6.92611 0.168303 -29.7124 16.3751 -5.02146 -0.0 0.0 0.0 -0.0 0.0 0.0 -8.48753e-15 1.21804e-13 9.40158e-14 80.1871 19.6594 6.83486 -17.3066 -9.96013 32.4829 -0.0922898 -8.6332 -1.22268 -2.77412e-10 3.58577e-10 2.07003e-10 -4.80397e-10 6.20644e-10 3.57558e-10 -2.77404e-10 3.58574e-10 2.06988e-10 7.73091 5.47488 0.417314 -2.77413e-10 3.58572e-10 2.07004e-10 2.90554 0.965183 0.102902 -2.77405e-10 3.58573e-10 2.07005e-10 10.2786 0.731801 0.0259123 -2.77416e-10 3.58574e-10 2.07008e-10 2.22167 -0.733487 -0.20892 -8.67996e-15 1.21805e-13 9.37736e-14 -73.5928 9.7265 4.7472 8.15461 -3.09293 -14.3836 0.152776 11.0575 -1.57391 -4.25349e-10 -5.84791e-10 -4.01876e-10 -7.38222e-10 -1.0126e-09 -6.93096e-10 -4.25358e-10 -5.84791e-10 -4.01863e-10 -7.73091 5.47488 -0.417314 -4.25349e-10 -5.84794e-10 -4.01875e-10 -2.90554 0.965183 -0.102902 -4.25356e-10 -5.84794e-10 -4.01871e-10 -10.2786 0.731801 -0.0259123 -4.25345e-10 -5.84794e-10 -4.01886e-10 -2.22167 -0.733487 0.20892 -2.03217e-16 0.0 -3.88251e-19 9.87619 -16.6855 6.02008 -0.0223266 20.7324 0.563156 -1.80679 -22.7281 -2.80206 2.03217e-16 0.0 3.88251e-19 -0.523194 -47.4304 -0.447339 0.0915902 16.424 -0.0470212 -0.940597 8.76929 19.7263
128.117 77.8098 -57.7133 181.145 -0.9468 -160.793 -8.53383 -28.4906 4.65805 3.20612 16.9227 1.17598 15.1558 6.65528 0.128566 -29.6244 16.7787 -5.0799 -0.0 0.0 0.0 -0.0 0.0 0.0 2.02137e-14 -5.4085e-14 4.62671e-14 80.4371 20.5558 6.96282 -17.2995 -9.95287 32.4669 -0.093994 -8.71161 -1.23396 -1.27878e-09 1.37098e-09 5.72688e-10 -2.2134e-09 2.37857e-09 9.8585e-10 -1.27877e-09 1.37097e-09 5.72681e-10 7.73091 5.47488 0.417314 -1.27878e-09 1.37097e-09 5.72684e-10 2.90554 0.965183 0.102902 -1.27877e-09 1.37097e-09 5.72685e-10 10.2786 0.731801 0.0259123 -1.27878e-09 1.37097e-09 5.72688e-10 2.22167 -0.733487 -0.20892 1.9942e-14 -5.40555e-14 4.59193e-14 -73.6365 9.70127 4.91952 8.30795 -3.17473 -14.6644 0.14672 10.8545 -1.54421 -1.09745e-09 -9.34081e-10 -1.44363e-09 -1.91133e-09 -1.61708e-09 -2.48474e-09 -1.09745e-09 -9.3408e-10 -1.44361e-09 -7.73091 5.47488 -0.417314 -1.09744e-09 -9.34081e-10 -1.44362e-09 -2.90554 0.965183 -0.102902 -1.09745e-09 -9.34081e-10 -1.44362e-09 -10.2786 0.731801 -0.0259123 -1.09744e-09 -9.34081e-10 -1.44363e-09 -2.22167 -0.733487 0.20892 -2.03217e-16 0.0 -3.88251e-19 9.52788 -16.4157 6.38257 -0.0305309 21.2887 0.565314 -1.88507 -22.7475 -2.98318 2.03217e-16 0.0 3.88251e-19 -1.00987 -46.936 -1.66678 0.0898145 16.6619 -0.0720367 -0.533682 7.7574 18.7249
127.879 77.8181 -58.74 180.506 -0.5852 -160.179 -9.69514 -28.8376 4.91398 3.21344 16.6475 1.30276 14.9318 6.55882 -0.0180432 -29.105 17.2507 -5.38776 -0.0 0.0 0.0 -0.0 0.0 0.0 1.05751e-13 -1.0323e-13 3.96327e-15 80.7418 21.3501 7.26193 -17.1948 -9.84673 32.2369 -0.0949688 -8.75407 -1.24007 -1.47997e-09 8.87684e-10 9.45893e-11 -2.55549e-09 1.53252e-09 1.55902e-10 -1.47997e-09 8.87686e-10 9.45853e-11 7.73091 5.47488 0.417314 -1.47997e-09 8.87686e-10 9.45859e-11 2.90554 0.965183 0.102902 -1.47996e-09 8.87686e-10 9.45864e-11 10.2786 0.731801 0.0259123 -1.47997e-09 8.87688e-10 9.45919e-11 2.22167 -0.733487 -0.20892 1.05614e-13 -1.03208e-13 3.59055e-15 -73.7046 9.32438 5.09458 8.42712 -3.23879 -14.8833 0.143513 10.7337 -1.52662 -1.07555e-09 -3.41755e-10 -2.29558e-09 -1.87972e-09 -5.91815e-10 -3.95747e-09 -1.07556e-09 -3.41756e-10 -2.29557e-09 -7.73091 5.47488 -0.417314 -1.07555e-09 -3.41756e-10 -2.29557e-09 -2.90554 0.965183 -0.102902 -1.07555e-09 -3.41756e-10 -2.29557e-09 -10.2786 0.731801 -0.0259123 -1.07555e-09 -3.41756e-10 -2.29558e-09 -2.22167 -0.733487 0.20892 -2.03217e-16 0.0 -3.88251e-19 8.84486 -16.441 6.67585 -0.0441987 21.9857 0.560012 -1.89996 -22.876 -3.00617 2.03217e-16 0.0 3.88251e-19 -2.016 -46.6504 -2.24954 0.0858937 16.3818 -0.0606797 -0.390979 7.28165 18.8322
127.686 77.9391 -59.8482 180.08 -0.5245 -159.86 -10.8204 -29.0956 4.98815 3.15651 16.4151 1.38519 14.7682 6.56307 -0.16327 -28.7072 17.5758 -5.69006 -0.0 0.0 0.0 -0.0 0.0 0.0 1.57028e-13 -1.32791e-13 -4.27387e-14 81.0129 22.1487 7.63547 -17.0846 -9.73518 31.9973 -0.0933844 -8.68359 -1.22992 -1.08983e-09 -1.64734e-10 -3.95756e-10 -1.87601e-09 -2.97671e-10 -6.92336e-10 -1.08983e-09 -1.64729e-10 -3.9576e-10 7.73091 5.47488 0.417314 -1.08983e-09 -1.64727e-10 -3.9576e-10 2.90554 0.965183 0.102902 -1.08982e-09 -1.64726e-10 -3.95759e-10 10.2786 0.731801 0.0259123 -1.08983e-09 -1.64725e-10 -3.9575e-10 2.22167 -0.733487 -0.20892 1.57062e-13 -1.32784e-13 -4.30866e-14 -73.7647 8.6743 5.12475 8.48374 -3.26957 -14.9872 0.145011 10.792 -1.5351 -5.24148e-10 4.35335e-10 -2.54942e-09 -9.2749e-10 7.5402e-10 -4.40153e-09 -5.24165e-10 4.35331e-10 -2.54941e-09 -7.73091 5.47488 -0.417314 -5.24148e-10 4.35332e-10 -2.54941e-09 -2.90554 0.965183 -0.102902 -5.24153e-10 4.35332e-10 -2.54942e-09 -10.2786 0.731801 -0.0259123 -5.24146e-10 4.35332e-10 -2.54943e-09 -2.22167 -0.733487 0.20892 -2.03217e-16 0.0 -3.88251e-19 8.09822 -16.6141 6.71736 -0.0608154 22.8407 0.550603 -1.81526 -22.6653 -2.8359 2.03217e-16 0.0 3.88251e-19 -3.11989 -46.4354 -2.58079 0.0825679 16.1129 -0.0428935 -0.248209 6.79919 19.1505
